<svg xmlns="http://www.w3.org/2000/svg" width="15" height="17" viewBox="0 0 15 17">
    <path fill="#9700FD" fill-rule="evenodd" d="M10.193 2.315H5.762V1.87l.028-.138.133-.162.182-.056h3.733l.137.028.162.134.056.181v.458zm3.87 0c.516 0 .937.421.937.936a.939.939 0 0 1-.937.937H1.892a.939.939 0 0 1-.936-.937c0-.515.421-.936.936-.936h2.684v-.458A1.526 1.526 0 0 1 5.51.45c.183-.078.385-.12.595-.12h3.746a1.523 1.523 0 0 1 1.407.933h.001c.078.183.121.386.121.595v.458h2.683zM2.715 15.055l-.823-9.948h12.17l-.821 9.949a1.555 1.555 0 0 1-1.518 1.398h-7.49a1.554 1.554 0 0 1-1.518-1.398zm7.217-.92c0 .219.17.403.394.417h.024c.22 0 .405-.172.417-.395l.437-7.388v-.024a.42.42 0 0 0-.394-.418h-.024a.419.419 0 0 0-.417.394l-.436 7.382-.001.007v.025zm-2.373-7.39v7.389a.42.42 0 0 0 .837 0v-7.39a.42.42 0 0 0-.837 0zm-1.536 7.372L5.587 6.72a.42.42 0 0 0-.418-.394h-.024a.42.42 0 0 0-.394.418v.024l.437 7.388a.42.42 0 0 0 .418.395h.024a.42.42 0 0 0 .394-.417l-.001-.018z"/>
</svg>
